<svg width="52" height="46" viewBox="0 0 52 46" fill="none" xmlns="http://www.w3.org/2000/svg">
<rect x="2.83309" y="8.30234" width="43.1025" height="35.4252" rx="17.7126" transform="rotate(-7.53995 2.83309 8.30234)" fill="#8CCBDF" stroke="black" stroke-width="0.657811"/>
<path d="M20.4083 29.4846C22.8762 28.9503 24.4282 26.4445 23.8746 23.8879C23.321 21.3312 20.8716 19.6919 18.4037 20.2262C15.9357 20.7606 14.3838 23.2663 14.9374 25.823C15.4909 28.3796 17.9404 30.019 20.4083 29.4846Z" fill="white"/>
<path d="M21.7981 28.4702C23.6441 27.1826 24.0952 24.64 22.8056 22.7912C21.516 20.9424 18.9741 20.4874 17.1281 21.7751C15.2821 23.0627 14.8311 25.6053 16.1206 27.4541C17.4102 29.3029 19.9521 29.7578 21.7981 28.4702Z" fill="black"/>
<path d="M19.9725 23.6208C20.0838 24.1893 20.5432 24.5778 20.9987 24.4887C21.4541 24.3995 21.7331 23.8663 21.6219 23.298C21.5106 22.7296 21.0512 22.341 20.5957 22.4301C20.1402 22.5192 19.8612 23.0524 19.9725 23.6208Z" fill="white"/>
<path d="M34.3717 26.7259C36.8396 26.1915 38.3916 23.6857 37.838 21.1291C37.2844 18.5725 34.835 16.9331 32.367 17.4675C29.8991 18.0018 28.3472 20.5076 28.9008 23.0642C29.4543 25.6208 31.9037 27.2602 34.3717 26.7259Z" fill="white"/>
<path d="M35.7584 25.7161C37.6037 24.4277 38.0537 21.885 36.7633 20.0368C35.4729 18.1886 32.9309 17.7348 31.0855 19.0232C29.2401 20.3116 28.7902 22.8543 30.0806 24.7025C31.371 26.5507 33.913 27.0045 35.7584 25.7161Z" fill="black"/>
<path d="M30.5702 22.1017C30.6814 22.67 31.1409 23.0587 31.5963 22.9695C32.0518 22.8804 32.3308 22.3474 32.2195 21.7788C32.1083 21.2105 31.6488 20.8218 31.1934 20.911C30.7379 21.0001 30.4589 21.5333 30.5702 22.1017Z" fill="white"/>
<path d="M37.8401 19.6767C37.159 18.4697 35.9992 17.5569 34.6623 17.1842C33.29 16.8017 31.8058 17.0238 30.5936 17.7709C29.8957 18.201 29.3009 18.7783 28.869 19.4765C28.6746 19.7906 29.1512 20.1114 29.3462 19.7963C30.022 18.7039 31.1395 17.924 32.398 17.6622C33.6235 17.4072 34.8974 17.6979 35.9234 18.4058C36.4993 18.8031 36.9821 19.3242 37.3263 19.934C37.5072 20.2543 38.0226 19.9998 37.8401 19.6767Z" fill="black"/>
<path d="M23.7065 22.6061C22.9922 21.1257 21.508 20.104 19.8888 19.8809C18.2322 19.6524 16.6166 20.3905 15.5681 21.6646C14.9837 22.3747 14.6106 23.2442 14.5011 24.1568C14.457 24.5247 15.0303 24.5654 15.0741 24.1993C15.2455 22.7701 16.1932 21.489 17.4723 20.8448C18.7765 20.188 20.3294 20.316 21.5625 21.0775C22.264 21.5106 22.8337 22.1198 23.1925 22.8635C23.3533 23.1961 23.8676 22.94 23.7065 22.6061Z" fill="black"/>
<path d="M29.6765 26.5701C29.5188 26.4933 29.3199 26.619 29.266 26.7691C29.2013 26.9494 29.3092 27.1037 29.465 27.1795C30.0354 27.4572 30.0098 28.2691 29.6027 28.6644C29.1537 29.1004 28.3365 29.2165 27.9148 28.6816C27.7774 28.5072 27.5259 28.5626 27.4052 28.7157C27.0308 29.1908 26.4045 29.4907 25.8136 29.2373C25.3247 29.0276 25.1105 28.4162 25.4483 27.9815C25.7034 27.653 25.166 27.2958 24.9125 27.6224C24.348 28.3489 24.7031 29.4093 25.4902 29.7948C26.2633 30.1735 27.0959 29.9101 27.6824 29.3572C28.3919 29.9081 29.5176 29.7201 30.114 29.0597C30.8145 28.2836 30.6371 27.0375 29.6765 26.5701Z" fill="black"/>
<path d="M9.73152 19.6282C8.07035 19.6974 6.36201 19.3784 4.94675 18.5058C3.53148 17.6332 2.44283 16.1663 2.23476 14.5167C2.02657 12.8671 2.80031 11.0801 4.25536 10.2755C5.25755 9.72137 6.48361 9.6598 7.59321 9.94323C9.9866 10.5545 11.8543 12.8279 11.9894 15.2943L9.73152 19.6282Z" fill="#8CCBDF"/>
<path d="M2.17826 11.1259C3.23676 9.69385 5.14981 9.08539 6.87235 9.34797C8.94671 9.66417 10.6244 11.1988 11.6986 12.9207C12.0175 13.432 11.2335 13.9426 10.9145 13.4313C10.0347 12.021 8.75666 10.7654 7.10079 10.3496C5.66267 9.98848 3.94285 10.3984 2.99523 11.5926C1.94169 12.9202 2.26829 14.8093 3.21807 16.0955C4.31272 17.578 6.14735 18.2601 7.88982 18.6094C8.47975 18.7276 8.27628 19.6409 7.68493 19.5224C5.59626 19.1036 3.42435 18.1942 2.23984 16.3231C1.25465 14.7674 1.04219 12.6628 2.17826 11.1259Z" fill="black"/>
<path d="M9.37646 14.6817C9.37646 14.6817 6.85257 10.546 4.95061 12.6407C3.04866 14.7354 8.027 16.2522 8.027 16.2522L9.37646 14.6817Z" fill="black"/>
<path d="M39.5854 13.0079C41.2331 12.786 42.8595 12.1736 44.1006 11.0672C45.3418 9.96087 46.1575 8.32646 46.0743 6.66587C45.9913 5.00525 44.9174 3.38079 43.3442 2.84268C42.2606 2.47205 41.0426 2.62553 39.9996 3.09837C37.7497 4.11816 36.3077 6.68281 36.6054 9.13493L39.5854 13.0079Z" fill="#8CCBDF"/>
<path d="M45.5383 3.31739C44.246 2.09219 42.2561 1.82714 40.6058 2.38648C38.6186 3.06005 37.2346 4.86409 36.4777 6.74706C36.2529 7.30621 37.1141 7.67203 37.3388 7.11288C37.9588 5.57062 38.998 4.11119 40.5558 3.41261C41.9088 2.80591 43.6738 2.90921 44.8153 3.91954C46.0845 5.04282 46.0928 6.95993 45.3823 8.39226C44.5633 10.0431 42.876 11.0351 41.2213 11.6833C40.661 11.9027 41.0209 12.7664 41.5824 12.5464C43.5659 11.7694 45.5456 10.4947 46.3852 8.44551C47.0836 6.74162 46.9253 4.63226 45.5383 3.31739Z" fill="black"/>
<path d="M39.0717 8.07549C39.0717 8.07549 40.8346 3.56259 43.0731 5.293C45.3116 7.02342 40.6747 9.38622 40.6747 9.38622L39.0717 8.07549Z" fill="black"/>
<path d="M31.1368 10.2621C27.1383 9.11989 22.9354 9.46938 19.1734 11.2382C18.0072 11.7865 18.7189 13.675 19.8974 13.1209C23.3739 11.4863 27.1015 11.1951 30.7939 12.2498C32.042 12.6063 32.3723 10.6149 31.1368 10.2621Z" fill="black"/>
<mask id="mask0_90_2621" style="mask-type:luminance" maskUnits="userSpaceOnUse" x="17" y="1" width="16" height="13">
<path d="M22.5781 12.1573C24.0557 11.783 25.58 11.5774 27.098 11.6977C28.1855 11.7839 29.9775 11.9534 30.9631 12.308C32.5307 11.0448 32.0667 8.94231 31.8752 6.99801C31.5484 3.67987 28.1366 1.29982 24.2549 1.68212C20.3732 2.06442 17.4913 5.06431 17.8181 8.38245C18.0008 10.238 17.9445 12.2621 19.5994 13.2118C19.5995 13.2117 21.9912 12.3061 22.5781 12.1573Z" fill="white"/>
</mask>
<g mask="url(#mask0_90_2621)">
<path d="M28.2228 14.6961C30.8255 12.7888 31.3893 9.13283 29.482 6.53014C27.5748 3.92745 23.9188 3.36367 21.3161 5.27092C18.7134 7.17816 18.1496 10.8342 20.0569 13.4369C21.9641 16.0396 25.6201 16.6033 28.2228 14.6961Z" fill="#DDAD25"/>
<path d="M30.6232 12.7152C32.0811 9.83687 30.9296 6.32166 28.0512 4.86378C25.1729 3.40589 21.6577 4.55741 20.1998 7.43575C18.7419 10.3141 19.8934 13.8293 22.7718 15.2872C25.6501 16.7451 29.1653 15.5936 30.6232 12.7152Z" fill="#FFEE60"/>
<path d="M25.9605 15.6249C29.0225 15.3233 31.2603 12.5966 30.9587 9.5346C30.6571 6.4726 27.9304 4.23484 24.8684 4.5364C21.8065 4.83797 19.5687 7.56468 19.8703 10.6267C20.1718 13.6887 22.8985 15.9264 25.9605 15.6249Z" fill="#FFD329"/>
<mask id="mask1_90_2621" style="mask-type:luminance" maskUnits="userSpaceOnUse" x="19" y="4" width="12" height="12">
<path d="M25.9605 15.6249C29.0225 15.3233 31.2603 12.5966 30.9587 9.5346C30.6571 6.4726 27.9304 4.23484 24.8684 4.5364C21.8065 4.83797 19.5687 7.56468 19.8703 10.6267C20.1718 13.6887 22.8985 15.9264 25.9605 15.6249Z" fill="white"/>
</mask>
<g mask="url(#mask1_90_2621)">
<path d="M29.6343 9.01857C29.4968 8.47344 29.2575 7.96563 28.9232 7.50957C28.5889 7.05338 28.1768 6.67243 27.6985 6.37701C27.2039 6.07152 26.6584 5.8713 26.0775 5.78166C25.4966 5.69201 24.9162 5.71873 24.3525 5.861C23.8074 5.99855 23.2997 6.23779 22.8435 6.5721C22.3873 6.9064 22.0064 7.31847 21.7109 7.79678C21.4054 8.29144 21.2052 8.83689 21.1156 9.41778C21.0261 9.99865 21.0528 10.5791 21.1949 11.1428C21.3325 11.6879 21.5717 12.1956 21.906 12.6518C22.2403 13.108 22.6524 13.4889 23.1307 13.7844C23.6255 14.0898 24.1708 14.2901 24.7517 14.3797C25.3326 14.4692 25.913 14.4425 26.4767 14.3004C27.0219 14.1628 27.5295 13.9236 27.9857 13.5893C28.4419 13.255 28.8229 12.8429 29.1183 12.3646C29.4238 11.8699 29.624 11.3245 29.7136 10.7436C29.8033 10.1627 29.7766 9.58226 29.6343 9.01857ZM28.4453 11.949C28.2037 12.3402 27.8919 12.6775 27.5183 12.9512C27.1447 13.2249 26.7292 13.4208 26.2833 13.5333C25.8229 13.6495 25.3481 13.6712 24.8723 13.5979C24.3966 13.5245 23.9506 13.3608 23.5463 13.1113C23.1551 12.8696 22.8179 12.5578 22.5441 12.1842C22.2703 11.8107 22.0745 11.3952 21.962 10.9493C21.8457 10.4888 21.8241 10.014 21.8974 9.53829C21.9708 9.06255 22.1345 8.6165 22.384 8.21239C22.6257 7.82113 22.9375 7.48385 23.3111 7.21018C23.6847 6.93651 24.1001 6.74059 24.546 6.62804C25.0065 6.51182 25.4813 6.49013 25.957 6.56349C26.4327 6.63685 26.8788 6.80053 27.2829 7.05011C27.6742 7.29176 28.0115 7.60356 28.2851 7.97714C28.5589 8.35071 28.7547 8.76621 28.8673 9.21209C28.9835 9.67257 29.0052 10.1474 28.9318 10.6231C28.8586 11.0987 28.6948 11.5449 28.4453 11.949Z" fill="#DDAD25"/>
</g>
</g>
</svg>
