<svg width="115" height="29" viewBox="0 0 115 29" fill="none" xmlns="http://www.w3.org/2000/svg">
<path d="M20.6695 24.4569C19.5262 25.5653 18.2779 25.3903 17.0762 24.8653C15.8045 24.3286 14.6379 24.3053 13.2962 24.8653C11.6162 25.5886 10.7295 25.3786 9.72619 24.4569C4.03286 18.5886 4.87286 9.65194 11.3362 9.32527C12.9112 9.40694 14.0079 10.1886 14.9295 10.2586C16.3062 9.9786 17.6245 9.1736 19.0945 9.2786C20.8562 9.4186 22.1862 10.1186 23.0612 11.3786C19.4212 13.5603 20.2845 18.3553 23.6212 19.6969C22.9562 21.4469 22.0929 23.1853 20.6579 24.4686L20.6695 24.4569ZM14.8129 9.25527C14.6379 6.6536 16.7495 4.50694 19.1762 4.29694C19.5145 7.30694 16.4462 9.54694 14.8129 9.25527Z" fill="white"/>
<path d="M39.4341 21.7969L38.145 17.9883H32.7739L31.4849 21.7969H29.2095L34.2974 7.70514H36.6607L41.7485 21.7969H39.4341ZM35.4302 10.0489L33.3306 16.2305H37.5884L35.4888 10.0489H35.4302ZM48.3989 11.3575C51.0064 11.3575 52.7251 13.4083 52.7251 16.6602C52.7251 19.9122 51.0161 21.9727 48.438 21.9727C46.9634 21.9727 45.7915 21.2501 45.2056 20.1075H45.1567V25.1954H43.0474V11.5235H45.0884V13.2911H45.1274C45.7329 12.1094 46.9146 11.3575 48.3989 11.3575ZM47.8423 20.1856C49.5122 20.1856 50.5571 18.8184 50.5571 16.6602C50.5571 14.5118 49.5122 13.1348 47.8423 13.1348C46.231 13.1348 45.147 14.5411 45.147 16.6602C45.147 18.7989 46.2212 20.1856 47.8423 20.1856ZM59.7075 11.3575C62.3149 11.3575 64.0337 13.4083 64.0337 16.6602C64.0337 19.9122 62.3247 21.9727 59.7466 21.9727C58.272 21.9727 57.1001 21.2501 56.5142 20.1075H56.4653V25.1954H54.356V11.5235H56.397V13.2911H56.436C57.0415 12.1094 58.2231 11.3575 59.7075 11.3575ZM59.1509 20.1856C60.8208 20.1856 61.8657 18.8184 61.8657 16.6602C61.8657 14.5118 60.8208 13.1348 59.1509 13.1348C57.5396 13.1348 56.4556 14.5411 56.4556 16.6602C56.4556 18.7989 57.5298 20.1856 59.1509 20.1856ZM69.356 17.8712H71.5142C71.6704 19.2676 73.0278 20.1856 74.8833 20.1856C76.6606 20.1856 77.9399 19.2676 77.9399 18.0079C77.9399 16.9141 77.1685 16.2598 75.3423 15.8106L73.5161 15.3712C70.9282 14.7462 69.7271 13.5352 69.7271 11.5723C69.7271 9.14069 71.8462 7.47077 74.854 7.47077C77.8325 7.47077 79.8735 9.14069 79.9419 11.5723H77.813C77.686 10.1661 76.5239 9.31647 74.8247 9.31647C73.1255 9.31647 71.9634 10.1758 71.9634 11.4258C71.9634 12.4219 72.7056 13.0079 74.522 13.4571L76.0747 13.838C78.9653 14.5215 80.1665 15.6837 80.1665 17.7442C80.1665 20.3809 78.0669 22.0313 74.727 22.0313C71.6021 22.0313 69.4927 20.42 69.356 17.8712ZM82.4907 9.09186H84.6099V11.5235H86.563V13.1934H84.6099V18.8575C84.6099 19.7462 85.0005 20.1465 85.8599 20.1465C86.0747 20.1465 86.4165 20.127 86.5532 20.0977V21.7676C86.3188 21.8262 85.8501 21.8653 85.3813 21.8653C83.3013 21.8653 82.4907 21.0743 82.4907 19.0919V13.1934H80.9966V11.5235H82.4907V9.09186ZM92.4614 21.9922C89.522 21.9922 87.5884 19.9708 87.5884 16.6602C87.5884 13.3594 89.5317 11.338 92.4614 11.338C95.3911 11.338 97.3345 13.3594 97.3345 16.6602C97.3345 19.9708 95.4009 21.9922 92.4614 21.9922ZM92.4614 20.254C94.1216 20.254 95.186 18.9454 95.186 16.6602C95.186 14.3848 94.1118 13.0762 92.4614 13.0762C90.811 13.0762 89.7368 14.3848 89.7368 16.6602C89.7368 18.9454 90.811 20.254 92.4614 20.254ZM98.9653 21.7969V11.5235H100.977V13.2715H101.026C101.368 12.0704 102.286 11.3575 103.497 11.3575C103.799 11.3575 104.063 11.4063 104.219 11.4356V13.3985C104.053 13.3301 103.682 13.2813 103.272 13.2813C101.915 13.2813 101.075 14.1895 101.075 15.6446V21.7969H98.9653ZM109.375 13.0372C107.901 13.0372 106.866 14.1602 106.758 15.713H111.895C111.846 14.1407 110.85 13.0372 109.375 13.0372ZM111.885 18.7794H113.887C113.594 20.6544 111.817 21.9922 109.463 21.9922C106.446 21.9922 104.62 19.9512 104.62 16.709C104.62 13.4864 106.475 11.338 109.375 11.338C112.227 11.338 114.004 13.3497 114.004 16.4649V17.1876H106.749V17.3145C106.749 19.1016 107.823 20.2833 109.512 20.2833C110.713 20.2833 111.602 19.6778 111.885 18.7794Z" fill="white"/>
</svg>
