<svg width="137" height="28" viewBox="0 0 137 28" fill="none" xmlns="http://www.w3.org/2000/svg">
<g clip-path="url(#clip0_90_2609)">
<path d="M11.9393 13.7728L0.694336 25.5543C0.820583 26.0018 1.04749 26.4146 1.3577 26.761C1.66792 27.1074 2.05324 27.3783 2.4842 27.553C2.91515 27.7277 3.38035 27.8015 3.84421 27.7688C4.30807 27.7362 4.75833 27.5979 5.16055 27.3645L17.8136 20.1581L11.9393 13.7728Z" fill="#EA4335"/>
<path d="M23.3106 11.77L17.8387 8.63611L11.6797 14.041L17.8637 20.1411L23.2939 17.0407C23.7749 16.7889 24.1779 16.4101 24.4591 15.9456C24.7402 15.481 24.8889 14.9484 24.8889 14.4054C24.8889 13.8623 24.7402 13.3297 24.4591 12.8651C24.1779 12.4006 23.7749 12.0218 23.2939 11.77H23.3106Z" fill="#FBBC04"/>
<path d="M12.0232 14.376L17.8386 8.63614L5.20199 1.39653C4.72655 1.11803 4.18581 0.970471 3.6348 0.968878C2.96954 0.967597 2.32211 1.18391 1.79123 1.58483C1.26035 1.98575 0.875138 2.54928 0.694336 3.1895L12.0232 14.376Z" fill="#34A853"/>
<path d="M0.694441 2.82172C0.626676 3.07312 0.592819 3.33245 0.593769 3.59283V24.4075C0.594566 24.6678 0.628301 24.9268 0.694441 25.1783L12.3251 13.6988L0.694441 2.82172Z" fill="#4285F4"/>
<path d="M44.8848 15.1406C44.8848 18.959 42.6289 21.2344 38.8106 21.2344C34.7774 21.2344 32.2383 18.4121 32.2383 13.8906C32.2383 9.44727 34.7676 6.67383 38.7813 6.67383C41.916 6.67383 44.2891 8.5293 44.7773 11.3418H42.5313C42.0039 9.59375 40.627 8.58789 38.791 8.58789C36.0957 8.58789 34.4746 10.5605 34.4746 13.8711C34.4746 17.2402 36.1445 19.3203 38.8301 19.3203C41.1152 19.3203 42.6973 17.8555 42.7266 15.7168V15.4727H39.084V13.7051H44.8848V15.1406ZM51.1836 21.1953C48.2441 21.1953 46.3106 19.1738 46.3106 15.8633C46.3106 12.5625 48.2539 10.541 51.1836 10.541C54.1133 10.541 56.0566 12.5625 56.0566 15.8633C56.0566 19.1738 54.1231 21.1953 51.1836 21.1953ZM51.1836 19.457C52.8438 19.457 53.9082 18.1484 53.9082 15.8633C53.9082 13.5879 52.834 12.2793 51.1836 12.2793C49.5332 12.2793 48.459 13.5879 48.459 15.8633C48.459 18.1484 49.5332 19.457 51.1836 19.457ZM62.1016 21.1953C59.1621 21.1953 57.2285 19.1738 57.2285 15.8633C57.2285 12.5625 59.1719 10.541 62.1016 10.541C65.0313 10.541 66.9746 12.5625 66.9746 15.8633C66.9746 19.1738 65.041 21.1953 62.1016 21.1953ZM62.1016 19.457C63.7617 19.457 64.8262 18.1484 64.8262 15.8633C64.8262 13.5879 63.752 12.2793 62.1016 12.2793C60.4512 12.2793 59.377 13.5879 59.377 15.8633C59.377 18.1484 60.4512 19.457 62.1016 19.457ZM72.9805 19.291C74.6309 19.291 75.7148 17.9531 75.7148 15.834C75.7148 13.7246 74.6309 12.3379 72.9805 12.3379C71.3594 12.3379 70.3047 13.6953 70.3047 15.834C70.3047 17.9824 71.3594 19.291 72.9805 19.291ZM73 24.8672C70.5781 24.8672 68.7812 23.5781 68.5176 21.8008H70.6367C70.9395 22.6602 71.877 23.2266 73.0781 23.2266C74.7285 23.2266 75.7051 22.2891 75.7051 20.8828V19.1934H75.666C75.0898 20.3066 73.8789 21.0391 72.4141 21.0391C69.8359 21.0391 68.1465 19.0273 68.1465 15.8242C68.1465 12.5918 69.8262 10.5605 72.4629 10.5605C73.918 10.5605 75.1094 11.293 75.7344 12.4844H75.7734V10.7266H77.8242V20.8145C77.8242 23.2656 75.9297 24.8672 73 24.8672ZM79.9922 21V6.90821H82.1016V21H79.9922ZM88.5664 12.2402C87.0918 12.2402 86.0566 13.3633 85.9492 14.916H91.0859C91.0371 13.3438 90.041 12.2402 88.5664 12.2402ZM91.0762 17.9824H93.0781C92.7852 19.8574 91.0078 21.1953 88.6543 21.1953C85.6367 21.1953 83.8105 19.1543 83.8105 15.9121C83.8105 12.6895 85.666 10.541 88.5664 10.541C91.418 10.541 93.1953 12.5527 93.1953 15.668V16.3906H85.9395V16.5176C85.9395 18.3047 87.0137 19.4863 88.7031 19.4863C89.9043 19.4863 90.793 18.8809 91.0762 17.9824ZM99.1523 6.90821H104.436C107.17 6.90821 109.074 8.79297 109.074 11.5371C109.074 14.291 107.131 16.1855 104.367 16.1855H101.34V21H99.1523V6.90821ZM101.34 8.75391V14.3496H103.85C105.754 14.3496 106.838 13.3242 106.838 11.5469C106.838 9.76953 105.754 8.75391 103.859 8.75391H101.34ZM110.812 21V6.90821H112.922V21H110.812ZM118.684 19.5059C120.158 19.5059 121.311 18.4902 121.311 17.1523V16.3418L118.781 16.498C117.521 16.5859 116.809 17.1426 116.809 18.0215C116.809 18.9199 117.551 19.5059 118.684 19.5059ZM118.098 21.1758C116.086 21.1758 114.68 19.9258 114.68 18.0801C114.68 16.2832 116.057 15.1797 118.498 15.043L121.311 14.877V14.0859C121.311 12.9434 120.539 12.2598 119.25 12.2598C118.029 12.2598 117.268 12.8457 117.082 13.7637H115.09C115.207 11.9082 116.789 10.541 119.328 10.541C121.818 10.541 123.41 11.8594 123.41 13.9199V21H121.389V19.3105H121.34C120.744 20.4531 119.445 21.1758 118.098 21.1758ZM126.477 24.8281C126.311 24.8281 125.773 24.8086 125.617 24.7793V23.0703C125.773 23.1094 126.125 23.1094 126.301 23.1094C127.287 23.1094 127.805 22.6992 128.127 21.6445C128.127 21.625 128.312 21.0195 128.312 21.0098L124.602 10.7266H126.887L129.494 19.0859H129.523L132.131 10.7266H134.357L130.5 21.5371C129.621 24.0273 128.615 24.8281 126.477 24.8281Z" fill="white"/>
</g>
<defs>
<clipPath id="clip0_90_2609">
<rect width="136" height="26.8281" fill="white" transform="translate(0.59375 0.968811)"/>
</clipPath>
</defs>
</svg>
